<svg width="545" height="463" viewBox="0 0 545 463" fill="none" xmlns="http://www.w3.org/2000/svg">
<path d="M408.118 0H136.039C54.4157 0 0 40.8118 0 136.039V326.494C0 421.721 54.4157 462.533 136.039 462.533H408.118C489.741 462.533 544.157 421.721 544.157 326.494V136.039C544.157 40.8118 489.741 0 408.118 0ZM420.905 165.696L335.745 233.715C317.788 248.135 294.933 255.209 272.078 255.209C249.224 255.209 226.097 248.135 208.412 233.715L123.251 165.696C114.545 158.622 113.185 145.562 119.987 136.855C127.061 128.149 139.848 126.516 148.555 133.59L233.715 201.61C254.393 218.207 289.491 218.207 310.169 201.61L395.33 133.59C404.036 126.516 417.096 127.877 423.898 136.855C430.972 145.562 429.612 158.622 420.905 165.696Z" fill="#292D32"/>
</svg>
