<svg width="340" height="340" viewBox="0 0 340 340" fill="none" xmlns="http://www.w3.org/2000/svg">
<path d="M279.689 251.833L286.311 305.494C288.01 319.588 272.896 329.437 260.839 322.135L202.084 287.154C198.009 284.776 196.99 279.682 199.197 275.606C207.688 259.984 212.273 242.323 212.273 224.663C212.273 162.511 158.952 111.907 93.4035 111.907C79.9883 111.907 66.9127 113.945 54.6862 118.02C48.4031 120.058 42.2898 114.284 43.8181 107.831C59.2711 46.0193 118.706 0 189.688 0C272.557 0 339.633 62.661 339.633 139.926C339.633 185.775 316.029 226.361 279.689 251.833Z" fill="#292D32"/>
<path d="M186.794 224.659C186.794 244.867 179.323 263.546 166.756 278.32C149.945 298.697 123.284 311.773 93.3972 311.773L49.076 338.094C41.6042 342.679 32.0947 336.396 33.1135 327.735L37.3589 294.282C14.6039 278.49 0 253.187 0 224.659C0 194.772 15.9624 168.451 40.4155 152.828C55.5289 142.979 73.6988 137.375 93.3972 137.375C145.02 137.375 186.794 176.432 186.794 224.659Z" fill="#292D32"/>
</svg>
