<svg width="401" height="522" viewBox="0 0 401 522" fill="none" xmlns="http://www.w3.org/2000/svg">
<path d="M391.536 325.382L365.485 282.137C360.014 272.498 355.064 254.262 355.064 243.581V177.671C355.064 116.45 319.113 63.5655 267.271 38.8166C253.724 14.8493 228.715 0 200.058 0C171.662 0 146.133 15.3703 132.586 39.5982C81.7858 64.8681 46.6163 117.231 46.6163 177.671V243.581C46.6163 254.262 41.6666 272.498 36.1958 281.877L9.88381 325.382C-0.53677 342.837 -2.88139 362.115 3.63147 379.83C9.88381 397.284 24.7331 410.831 44.0112 417.344C94.551 434.538 147.696 442.874 200.84 442.874C253.985 442.874 307.13 434.538 357.669 417.605C375.905 411.613 389.973 397.805 396.747 379.83C403.52 361.854 401.696 342.055 391.536 325.382Z" fill="#292D32"/>
<path d="M274.039 469.186C263.097 499.406 234.18 521.029 200.313 521.029C179.733 521.029 159.413 512.692 145.084 497.843C136.748 490.028 130.495 479.607 126.848 468.926C130.235 469.447 133.622 469.707 137.269 470.228C143.261 471.01 149.513 471.792 155.765 472.313C170.615 473.615 185.725 474.397 200.834 474.397C215.684 474.397 230.533 473.615 245.122 472.313C250.593 471.792 256.064 471.531 261.274 470.749C265.442 470.228 269.61 469.707 274.039 469.186Z" fill="#292D32"/>
</svg>
