<svg width="340" height="340" viewBox="0 0 340 340" fill="none" xmlns="http://www.w3.org/2000/svg">
<path d="M302.07 37.5623C251.818 -12.5208 170.327 -12.5208 120.413 37.5623C85.27 72.3658 74.7441 122.449 88.3259 166.59L8.53258 246.383C2.93007 252.155 -0.974706 263.53 0.213705 271.679L5.3069 308.69C7.1744 320.913 18.5492 332.458 30.7728 334.156L67.7834 339.249C75.9325 340.437 87.3073 336.702 93.0796 330.76L107.001 316.839C110.396 313.613 110.396 308.18 107.001 304.785L74.065 271.849C69.1415 266.925 69.1415 258.776 74.065 253.853C78.9884 248.93 87.1375 248.93 92.0609 253.853L125.167 286.959C128.392 290.184 133.825 290.184 137.051 286.959L173.043 251.137C217.014 264.888 267.097 254.192 302.07 219.389C352.154 169.306 352.154 87.6453 302.07 37.5623ZM212.261 169.646C188.832 169.646 169.817 150.631 169.817 127.202C169.817 103.774 188.832 84.7592 212.261 84.7592C235.689 84.7592 254.704 103.774 254.704 127.202C254.704 150.631 235.689 169.646 212.261 169.646Z" fill="#292D32"/>
</svg>
